<svg width="32" height="32" viewBox="0 0 32 32" fill="none" xmlns="http://www.w3.org/2000/svg">
<rect width="32" height="32" rx="12" fill="#F67171"/>
<path fill-rule="evenodd" clip-rule="evenodd" d="M17.4748 13.1749C17.4748 14.9374 16.0325 16.3499 14.2328 16.3499C12.4337 16.3499 10.9908 14.9374 10.9908 13.1749C10.9908 11.4124 12.4337 10 14.2328 10C16.0325 10 17.4748 11.4124 17.4748 13.1749ZM9.33319 19.9449C9.33319 18.3134 11.5902 17.9052 14.2327 17.9052C16.8896 17.9052 19.1323 18.3274 19.1323 19.9602C19.1323 21.5918 16.8753 22 14.2327 22C11.5759 22 9.33319 21.5777 9.33319 19.9449ZM18.7822 13.2325C18.7822 14.13 18.5069 14.9675 18.0242 15.6632C17.974 15.7348 18.0183 15.8312 18.1058 15.8466C18.2271 15.8664 18.3517 15.8785 18.4789 15.8811C19.7444 15.9136 20.8801 15.1157 21.1938 13.9141C21.6589 12.1312 20.2943 10.5303 18.5559 10.5303C18.3673 10.5303 18.1866 10.5495 18.0105 10.5846C17.9864 10.5897 17.9603 10.6012 17.9472 10.6216C17.9303 10.6478 17.9427 10.6817 17.9596 10.704C18.4821 11.4214 18.7822 12.2947 18.7822 13.2325ZM20.8782 17.1349C21.7288 17.2978 22.2878 17.6293 22.5194 18.1129C22.7158 18.509 22.7158 18.9689 22.5194 19.365C22.1652 20.1137 21.0223 20.3545 20.5781 20.4165C20.4861 20.4293 20.4124 20.3526 20.4222 20.2619C20.6492 18.187 18.8443 17.2032 18.3772 16.9771C18.3576 16.9662 18.3531 16.9509 18.355 16.9407C18.3563 16.9343 18.3648 16.9241 18.3798 16.9221C19.3903 16.903 20.477 17.039 20.8782 17.1349Z" fill="white"/>
</svg>
