<svg width="40" height="40" viewBox="0 0 40 40" fill="none" xmlns="http://www.w3.org/2000/svg">
<rect opacity="0.1" y="2.28882e-05" width="40" height="40" rx="15" fill="#B548C6"/>
<path fill-rule="evenodd" clip-rule="evenodd" d="M22.6364 15.0688C22.899 15.0724 23.1622 15.076 23.4263 15.0787C26.264 15.0787 28.3331 17.1018 28.3331 19.8956V23.4843C28.3331 26.2781 26.264 28.3012 23.4263 28.3012C22.2895 28.3253 21.1528 28.3333 20.0079 28.3333C18.863 28.3333 17.7099 28.3253 16.5732 28.3012C13.7354 28.3012 11.6664 26.2781 11.6664 23.4843V19.8956C11.6664 17.1018 13.7354 15.0787 16.5813 15.0787C17.6526 15.0626 18.7485 15.0466 19.8607 15.0466V14.9101C19.8607 14.3561 19.3945 13.9066 18.8384 13.9066H18.0288C17.1047 13.9066 16.3523 13.168 16.3523 12.2688C16.3523 11.9396 16.6304 11.6667 16.9657 11.6667C17.3092 11.6667 17.579 11.9396 17.579 12.2688C17.579 12.5096 17.7835 12.7023 18.0288 12.7023H18.8384C20.0733 12.7104 21.0792 13.6978 21.0874 14.9021V15.0546C21.6029 15.0546 22.1185 15.0617 22.6364 15.0688ZM19.0431 22.2881H18.1844V23.1391C18.1844 23.4682 17.9064 23.7412 17.5711 23.7412C17.2276 23.7412 16.9577 23.4682 16.9577 23.1391V22.2881H16.0909C15.7556 22.2881 15.4775 22.0231 15.4775 21.686C15.4775 21.3568 15.7556 21.0838 16.0909 21.0838H16.9577V20.2409C16.9577 19.9117 17.2276 19.6387 17.5711 19.6387C17.9064 19.6387 18.1844 19.9117 18.1844 20.2409V21.0838H19.0431C19.3784 21.0838 19.6565 21.3568 19.6565 21.686C19.6565 22.0231 19.3784 22.2881 19.0431 22.2881ZM22.5188 20.9313H22.6006C22.9359 20.9313 23.2139 20.6664 23.2139 20.3292C23.2139 20 22.9359 19.7271 22.6006 19.7271H22.5188C22.1753 19.7271 21.9054 20 21.9054 20.3292C21.9054 20.6664 22.1753 20.9313 22.5188 20.9313ZM23.9173 23.693H23.9991C24.3344 23.693 24.6124 23.4281 24.6124 23.0909C24.6124 22.7618 24.3344 22.4888 23.9991 22.4888H23.9173C23.573 22.4888 23.3039 22.7618 23.3039 23.0909C23.3039 23.4281 23.573 23.693 23.9173 23.693Z" fill="#B548C6"/>
</svg>
