<svg width="40" height="40" viewBox="0 0 40 40" fill="none" xmlns="http://www.w3.org/2000/svg">
<rect opacity="0.1" y="4.57764e-05" width="40" height="40" rx="15" fill="#FF8700"/>
<path fill-rule="evenodd" clip-rule="evenodd" d="M24.5331 15.197C24.5664 15.2553 24.6247 15.2969 24.6997 15.2969C26.6997 15.2969 28.3331 16.9284 28.3331 18.9262V23.8707C28.3331 25.8685 26.6997 27.5 24.6997 27.5H15.2997C13.2914 27.5 11.6664 25.8685 11.6664 23.8707V18.9262C11.6664 16.9284 13.2914 15.2969 15.2997 15.2969C15.3664 15.2969 15.433 15.2636 15.458 15.197L15.508 15.0971C15.5368 15.0367 15.5663 14.9746 15.5962 14.9116C15.8094 14.4625 16.0452 13.9657 16.1914 13.6737C16.5747 12.9246 17.2247 12.5084 18.033 12.5H21.9581C22.7664 12.5084 23.4247 12.9246 23.8081 13.6737C23.9393 13.936 24.1393 14.3584 24.3321 14.7655C24.3718 14.8495 24.4112 14.9328 24.4497 15.0139L24.5331 15.197ZM23.9247 18.3935C23.9247 18.8097 24.258 19.1426 24.6747 19.1426C25.0914 19.1426 25.433 18.8097 25.433 18.3935C25.433 17.9773 25.0914 17.636 24.6747 17.636C24.258 17.636 23.9247 17.9773 23.9247 18.3935ZM18.5581 19.6837C18.9498 19.2925 19.4581 19.0844 19.9998 19.0844C20.5415 19.0844 21.0498 19.2925 21.4331 19.6754C21.8165 20.0583 22.0248 20.5661 22.0248 21.1071C22.0165 22.2225 21.1165 23.1299 19.9998 23.1299C19.4581 23.1299 18.9498 22.9218 18.5665 22.5389C18.1831 22.156 17.9748 21.6482 17.9748 21.1071V21.0988C17.9665 20.5744 18.1748 20.0666 18.5581 19.6837ZM22.308 23.4212C21.7164 24.0122 20.8997 24.3785 19.9997 24.3785C19.1247 24.3785 18.308 24.0372 17.683 23.4212C17.0664 22.7969 16.7247 21.9811 16.7247 21.1071C16.7164 20.2414 17.058 19.4256 17.6747 18.8013C18.2997 18.177 19.1247 17.8357 19.9997 17.8357C20.8747 17.8357 21.6997 18.177 22.3164 18.793C22.933 19.4173 23.2747 20.2414 23.2747 21.1071C23.2664 22.0144 22.8997 22.8302 22.308 23.4212Z" fill="#FF8700"/>
</svg>
