<svg width="40" height="40" viewBox="0 0 40 40" fill="none" xmlns="http://www.w3.org/2000/svg">
<rect y="1.52588e-05" width="40" height="40" rx="15" fill="#32A7E2" fill-opacity="0.1"/>
<path fill-rule="evenodd" clip-rule="evenodd" d="M21.7676 19.361H24.0741C24.4238 19.361 24.6986 19.0718 24.6986 18.7232C24.6986 18.366 24.4238 18.0854 24.0741 18.0854H21.7676C21.4179 18.0854 21.1431 18.366 21.1431 18.7232C21.1431 19.0718 21.4179 19.361 21.7676 19.361ZM26.8135 14.9396C27.3215 14.9396 27.6545 15.1182 27.9876 15.5094C28.3207 15.9006 28.379 16.4619 28.304 16.9713L27.513 22.5501C27.3631 23.6224 26.4638 24.4125 25.4063 24.4125H16.3217C15.2142 24.4125 14.2983 23.5459 14.2067 22.4233L13.4406 13.1529L12.1833 12.9318C11.8502 12.8722 11.617 12.5406 11.6753 12.2004C11.7336 11.8526 12.0584 11.6221 12.3998 11.674L14.3857 11.9793C14.6688 12.0312 14.877 12.2684 14.902 12.5576L15.0602 14.4625C15.0852 14.7355 15.3017 14.9396 15.5681 14.9396H26.8135ZM16.1885 25.7566C15.489 25.7566 14.9228 26.3349 14.9228 27.0492C14.9228 27.7551 15.489 28.3334 16.1885 28.3334C16.8796 28.3334 17.4458 27.7551 17.4458 27.0492C17.4458 26.3349 16.8796 25.7566 16.1885 25.7566ZM25.5562 25.7566C24.8567 25.7566 24.2905 26.3349 24.2905 27.0492C24.2905 27.7551 24.8567 28.3334 25.5562 28.3334C26.2473 28.3334 26.8135 27.7551 26.8135 27.0492C26.8135 26.3349 26.2473 25.7566 25.5562 25.7566Z" fill="#32A7E2"/>
</svg>
