<svg width="32" height="32" viewBox="0 0 32 32" fill="none" xmlns="http://www.w3.org/2000/svg">
<rect width="32" height="32" rx="12" fill="#FFB648"/>
<path fill-rule="evenodd" clip-rule="evenodd" d="M13.9504 18.9267H17.5412C17.8118 18.9267 18.0362 18.7 18.0362 18.4267C18.0362 18.1533 17.8118 17.9333 17.5412 17.9333H13.9504C13.6798 17.9333 13.4554 18.1533 13.4554 18.4267C13.4554 18.7 13.6798 18.9267 13.9504 18.9267ZM16.1815 14.6H13.9504C13.6798 14.6 13.4554 14.8267 13.4554 15.1C13.4554 15.3733 13.6798 15.5933 13.9504 15.5933H16.1815C16.4521 15.5933 16.6765 15.3733 16.6765 15.1C16.6765 14.8267 16.4521 14.6 16.1815 14.6ZM20.8919 14.0171C21.0471 14.0153 21.216 14.0133 21.3695 14.0133C21.5345 14.0133 21.6665 14.1467 21.6665 14.3133V19.6733C21.6665 21.3267 20.3398 22.6667 18.7028 22.6667H13.4487C11.7325 22.6667 10.3332 21.26 10.3332 19.5267V12.34C10.3332 10.6867 11.6665 9.33334 13.3101 9.33334H16.8348C17.0065 9.33334 17.1385 9.47334 17.1385 9.64001V11.7867C17.1385 13.0067 18.1352 14.0067 19.3431 14.0133C19.6252 14.0133 19.874 14.0155 20.0917 14.0173C20.261 14.0187 20.4116 14.02 20.5444 14.02C20.6384 14.02 20.7602 14.0186 20.8919 14.0171ZM21.0741 13.044C20.5315 13.046 19.8919 13.044 19.4318 13.0393C18.7018 13.0393 18.1005 12.432 18.1005 11.6947V9.93734C18.1005 9.65001 18.4457 9.50734 18.6431 9.71468C19.0003 10.0898 19.4912 10.6055 19.9799 11.1189C20.4673 11.6309 20.9524 12.1405 21.3005 12.506C21.4932 12.708 21.352 13.0433 21.0741 13.044Z" fill="white"/>
</svg>
