<svg width="32" height="32" viewBox="0 0 32 32" fill="none" xmlns="http://www.w3.org/2000/svg">
<rect width="32" height="32" rx="12" fill="#9471F7"/>
<path fill-rule="evenodd" clip-rule="evenodd" d="M13.0306 10.1853C13.1414 10.2653 13.3201 10.449 13.3201 10.449C14.0137 11.0991 15.0584 12.716 15.3939 13.5363C15.4009 13.5363 15.5999 14.0241 15.6077 14.2561V14.2869C15.6077 14.6425 15.4087 14.975 15.0889 15.1453C14.957 15.2155 14.6362 15.2807 14.4815 15.3122C14.4302 15.3227 14.3972 15.3294 14.3952 15.3314C13.938 15.401 13.2366 15.447 12.4665 15.447C11.6582 15.447 10.9264 15.401 10.4762 15.3155C10.4684 15.3155 10.0572 15.2308 9.91991 15.1762C9.72174 15.0914 9.55399 14.9362 9.4471 14.743C9.37064 14.5886 9.33319 14.4255 9.33319 14.2561C9.34021 14.0779 9.4549 13.7453 9.50796 13.6139C9.84345 12.7468 10.9412 11.0911 11.6122 10.4569C11.6819 10.3861 11.7612 10.312 11.8164 10.2605C11.8459 10.233 11.8685 10.2119 11.879 10.2011C12.0468 10.0697 12.2528 10 12.4743 10C12.6717 10 12.8699 10.0618 13.0306 10.1853ZM20.1523 14.7745C20.1523 15.1237 19.8738 15.4064 19.5297 15.4064C19.1856 15.4064 18.9071 15.1237 18.9071 14.7745L18.7354 11.722C18.7354 11.277 19.0912 10.9167 19.5297 10.9167C19.9682 10.9167 20.3232 11.277 20.3232 11.722L20.1523 14.7745ZM22.0797 16.8237C22.2779 16.9092 22.4457 17.0637 22.5525 17.2569C22.629 17.4113 22.6665 17.5744 22.6665 17.7446C22.6594 17.922 22.5447 18.2554 22.4909 18.3868C22.1562 19.2531 21.0577 20.9088 20.3874 21.5439C20.3189 21.6129 20.2411 21.6856 20.186 21.7369L20.186 21.737L20.186 21.737L20.186 21.737L20.1859 21.737C20.1552 21.7657 20.1315 21.7878 20.1206 21.7989C19.9521 21.9303 19.7469 22 19.5261 22C19.3271 22 19.129 21.9382 18.969 21.8139C18.8582 21.7347 18.6795 21.551 18.6795 21.551C17.9852 20.9017 16.9412 19.284 16.6057 18.4636C16.5979 18.4636 16.3998 17.9766 16.392 17.7446V17.7138C16.392 17.3574 16.5901 17.0249 16.9108 16.8546C17.0424 16.7852 17.3621 16.7197 17.5172 16.688L17.5173 16.6879L17.5173 16.6879C17.5691 16.6773 17.6025 16.6705 17.6044 16.6685C18.0616 16.5988 18.763 16.5529 19.5331 16.5529C20.3414 16.5529 21.0733 16.5988 21.5234 16.6844C21.5305 16.6844 21.9424 16.7691 22.0797 16.8237ZM12.4703 16.5937C12.1262 16.5937 11.8477 16.8764 11.8477 17.2256L11.676 20.278C11.676 20.7231 12.0318 21.0833 12.4703 21.0833C12.9088 21.0833 13.2638 20.7231 13.2638 20.278L13.0929 17.2256C13.0929 16.8764 12.8144 16.5937 12.4703 16.5937Z" fill="white"/>
</svg>
