<svg width="40" height="40" viewBox="0 0 40 40" fill="none" xmlns="http://www.w3.org/2000/svg">
<rect opacity="0.1" y="3.05176e-05" width="40" height="40" rx="15" fill="#22B07D"/>
<path fill-rule="evenodd" clip-rule="evenodd" d="M18.9201 11.9325C18.3615 11.9325 17.8863 12.3207 17.7529 12.8439H22.2384C22.105 12.3207 21.6298 11.9325 21.0712 11.9325H18.9201ZM23.5056 12.8439H25.1565C26.9073 12.8439 28.333 14.2869 28.333 16.0591C28.333 16.0591 28.283 16.8093 28.2663 17.854C28.2647 17.9367 28.2247 18.0177 28.1588 18.0666C27.7578 18.3629 27.3909 18.6076 27.3576 18.6245C25.9735 19.5527 24.3652 20.2059 22.6519 20.5308C22.5402 20.5527 22.4301 20.4945 22.3734 20.3949C21.8932 19.5628 20.996 19.0211 19.9955 19.0211C19.0017 19.0211 18.0963 19.5569 17.6019 20.3898C17.5443 20.4877 17.4359 20.5443 17.325 20.5232C15.6259 20.1974 14.0176 19.5451 12.6419 18.6329L11.8415 18.0759C11.7748 18.0337 11.7331 17.9578 11.7331 17.8734C11.7081 17.443 11.6664 16.0591 11.6664 16.0591C11.6664 14.2869 13.0921 12.8439 14.843 12.8439H16.4855C16.6439 11.6203 17.6694 10.6667 18.92 10.6667H21.0711C22.3217 10.6667 23.3472 11.6203 23.5056 12.8439ZM28.0496 19.6794L28.0162 19.6963C26.332 20.8271 24.306 21.5781 22.18 21.8903C21.8798 21.9325 21.5797 21.7384 21.4963 21.4346C21.3129 20.7427 20.7209 20.287 20.0122 20.287H20.0039H19.9872C19.2785 20.287 18.6865 20.7427 18.5031 21.4346C18.4197 21.7384 18.1196 21.9325 17.8194 21.8903C15.6934 21.5781 13.6674 20.8271 11.9832 19.6963C11.9749 19.6878 11.8915 19.6372 11.8248 19.6794C11.7497 19.7216 11.7497 19.8228 11.7497 19.8228L11.8081 24.1266C11.8081 25.8988 13.2255 27.3334 14.9764 27.3334H25.0147C26.7656 27.3334 28.183 25.8988 28.183 24.1266L28.2497 19.8228C28.2497 19.8228 28.2497 19.7216 28.1746 19.6794C28.1329 19.6541 28.0829 19.6625 28.0496 19.6794ZM20.6209 23.2152C20.6209 23.5697 20.3458 23.8482 19.9956 23.8482C19.6537 23.8482 19.3703 23.5697 19.3703 23.2152V22.1266C19.3703 21.7807 19.6537 21.4937 19.9956 21.4937C20.3458 21.4937 20.6209 21.7807 20.6209 22.1266V23.2152Z" fill="#22B07D"/>
</svg>
